<?xml version="1.0" standalone="no"?>
<!DOCTYPE svg PUBLIC "-//W3C//DTD SVG 20010904//EN"
 "http://www.w3.org/TR/2001/REC-SVG-20010904/DTD/svg10.dtd">
<svg version="1.0" xmlns="http://www.w3.org/2000/svg"
 width="1080.000000pt" height="1080.000000pt" viewBox="0 0 1080.000000 1080.000000"
 preserveAspectRatio="xMidYMid meet">
<metadata>
Created by potrace 1.14, written by Peter Selinger 2001-2017
</metadata>
<g transform="translate(0.000000,1080.000000) scale(0.100000,-0.100000)"
fill="#000000" stroke="none">
<path d="M5309 9765 c-2 -2 -47 -6 -99 -9 -52 -4 -102 -8 -110 -11 -8 -2 -44
-6 -80 -10 -36 -4 -76 -8 -90 -10 -48 -7 -105 -16 -130 -21 -14 -2 -38 -7 -55
-10 -57 -10 -220 -45 -250 -54 -87 -26 -146 -42 -157 -44 -108 -18 -496 -170
-718 -280 -571 -284 -1033 -655 -1469 -1181 -123 -148 -299 -411 -420 -628
-51 -92 -191 -379 -191 -393 0 -2 -9 -26 -21 -52 -102 -231 -198 -552 -254
-856 -53 -291 -70 -483 -70 -806 0 -240 10 -420 29 -548 3 -20 8 -55 11 -77 6
-44 41 -248 49 -280 14 -64 30 -131 40 -173 3 -9 12 -44 21 -77 9 -33 18 -68
20 -79 11 -50 113 -334 161 -449 74 -175 207 -440 269 -537 12 -19 44 -70 71
-113 86 -139 116 -181 228 -327 102 -133 104 -135 207 -249 129 -144 244 -258
400 -396 19 -17 79 -66 134 -110 55 -44 102 -82 105 -85 3 -3 28 -20 55 -39
28 -19 84 -57 125 -86 265 -181 579 -344 898 -464 160 -60 317 -110 442 -141
19 -5 63 -15 97 -24 34 -9 75 -18 90 -21 15 -2 37 -7 48 -9 73 -15 197 -36
235 -40 25 -3 77 -10 115 -15 223 -32 841 -36 995 -6 9 2 41 6 71 10 47 5 276
44 363 60 147 29 493 131 646 192 182 71 438 191 560 260 446 255 804 541
1120 893 41 46 82 91 90 99 30 32 158 198 225 290 253 353 459 757 595 1171
37 112 102 345 114 410 3 14 10 50 16 80 6 30 13 66 16 80 2 14 9 48 14 75 41
219 58 456 54 775 -3 278 -5 307 -25 460 -6 47 -13 103 -15 125 -7 56 -43 255
-48 263 -2 4 -7 24 -10 46 -22 137 -122 463 -206 676 -118 294 -278 592 -457
852 -60 88 -198 271 -242 322 -193 224 -351 382 -566 566 -108 93 -334 256
-485 350 -85 53 -315 181 -380 212 -231 109 -347 156 -525 216 -108 37 -309
96 -360 106 -11 3 -42 10 -70 16 -27 6 -59 14 -70 16 -11 2 -31 6 -45 9 -29 6
-193 34 -230 40 -24 3 -153 19 -255 31 -55 6 -621 15 -626 9z"/>
</g>
</svg>
